<?xml version="1.0" encoding="utf-8"?>
<!-- Generator: Adobe Illustrator 16.0.3, SVG Export Plug-In . SVG Version: 6.00 Build 0)  -->
<!DOCTYPE svg PUBLIC "-//W3C//DTD SVG 1.1//EN" "http://www.w3.org/Graphics/SVG/1.1/DTD/svg11.dtd">
<svg version="1.1" id="Layer_1" xmlns="http://www.w3.org/2000/svg" xmlns:xlink="http://www.w3.org/1999/xlink" x="0px" y="0px"
	 viewBox="0 96.457 500.877 287.045" enable-background="new 0 96.457 500.877 287.045"
	 xml:space="preserve">
<g>
	<path fill="#28B485" d="M0,296.475h92.382v-92.292H0V296.475z"/>
	<path fill="#FFFFFF" d="M78.753,243.449l-52.398,38.026l7.646-23.502l-20.015-14.524h24.739l7.644-23.503l7.644,23.503H78.753z
		 M46.372,266.952l14.31-3.007l5.701,17.53L46.372,266.952z"/>
</g>
<g>
	<path fill="#28B485" d="M102.088,296.475h92.382v-92.292h-92.382V296.475z"/>
	<path fill="#28B485" d="M102.088,296.475h46.191v-92.292h-46.191V296.475z"/>
	<path fill="#FFFFFF" d="M149.384,266.594l12.271-2.649l5.675,17.929l-19.243-14.349l-19.994,14.349l7.76-23.588l-20.315-14.577
		h25.11l7.757-23.588l7.76,23.588h25.109L149.384,266.594z"/>
</g>
<g>
	<path fill="#28B485" d="M204.248,296.475h92.381v-92.292h-92.381V296.475z"/>
	<path fill="#28B485" d="M204.248,296.475h46.191v-92.292h-46.191V296.475z"/>
	<path fill="#FFFFFF" d="M283.002,243.449l-52.398,38.026l7.646-23.502l-20.015-14.524h24.739l7.645-23.503l7.645,23.503H283.002z
		 M250.621,266.952l14.31-3.007l5.701,17.53L250.621,266.952z"/>
</g>
<g>
	<path fill="#28B485" d="M306.405,296.475h92.382v-92.292h-92.382V296.475z"/>
	<path fill="#28B485" d="M306.405,296.475h46.19v-92.292h-46.19V296.475z"/>
	<path fill="#FFFFFF" d="M385.156,243.449l-52.396,38.026l7.645-23.502l-20.015-14.524h24.739l7.644-23.503l7.645,23.503H385.156z
		 M352.774,266.952l14.311-3.007l5.701,17.53L352.774,266.952z"/>
</g>
<g>
	<path fill="#28B485" d="M408.495,296.475h92.382v-92.292h-92.382V296.475z"/>
	<path fill="#28B485" d="M408.495,296.475h46.19v-92.292h-46.19V296.475z"/>
	<path fill="#FFFFFF" d="M487.245,243.449l-52.396,38.026l7.645-23.502l-20.015-14.524h24.739l7.644-23.503l7.645,23.503H487.245z
		 M454.863,266.952l14.311-3.007l5.701,17.53L454.863,266.952z"/>
</g>
<text transform="matrix(1 0 0 1 101.1655 162.9678)" fill="#252525" font-family="'Myriad-Roman'" font-size="79.4639">Excellent</text>
<text transform="matrix(1 0 0 1 44.5005 372.833)"><tspan x="0" y="0" fill="#505050" font-family="'Myriad-Roman'" font-size="42.6742">Based on</tspan><tspan x="162.203" y="0" fill="#353535" font-family="'Myriad-Roman'" font-size="42.6742"> </tspan><tspan x="171.249" y="0" fill="#252525" font-family="'Myriad-Roman'" font-size="42.6742" text-decoration=" underline">4,230 reviews</tspan></text>
</svg>
